<svg xmlns="http://www.w3.org/2000/svg" viewBox="0 0 100 100">
  <rect width="100" height="100" rx="12" fill="#24292e"/>
  <path d="M50 15C30.67 15 15 30.67 15 50c0 15.47 10.03 28.6 23.95 33.25 1.75.32 2.39-.76 2.39-1.69 0-.83-.03-3.03-.05-5.95-9.74 2.12-11.8-4.7-11.8-4.7-1.59-4.04-3.88-5.12-3.88-5.12-3.18-2.17.24-2.13.24-2.13 3.51.25 5.36 3.6 5.36 3.6 3.12 5.35 8.19 3.8 10.18 2.91.32-2.26 1.22-3.8 2.22-4.68-7.78-.88-15.95-3.89-15.95-17.31 0-3.83 1.37-6.95 3.61-9.4-.36-.89-1.56-4.45.34-9.28 0 0 2.94-.94 9.63 3.59 2.79-.78 5.79-1.17 8.77-1.18 2.98.01 5.98.4 8.78 1.18 6.68-4.53 9.61-3.59 9.61-3.59 1.91 4.83.71 8.39.35 9.28 2.25 2.45 3.6 5.57 3.6 9.4 0 13.45-8.19 16.42-15.99 17.28 1.26 1.08 2.38 3.22 2.38 6.49 0 4.69-.04 8.47-.04 9.62 0 .94.63 2.03 2.41 1.69C74.99 78.58 85 65.46 85 50 85 30.67 69.33 15 50 15z" fill="white"/>
</svg>
