<svg xmlns="http://www.w3.org/2000/svg" viewBox="0 0 100 100" fill="none">
  <rect width="100" height="100" rx="12" fill="#3776AB"/>
  <g transform="translate(50,50)">
    <path d="M-5,-25 C-5,-30 0,-30 5,-30 L15,-30 C20,-30 20,-25 20,-20 L20,0 C20,5 15,10 5,10 L-15,10 C-20,10 -25,15 -25,20" stroke="#FFD43B" stroke-width="6" fill="none"/>
    <path d="M5,25 C5,30 0,30 -5,30 L-15,30 C-20,30 -20,25 -20,20 L-20,0 C-20,-5 -15,-10 -5,-10 L15,-10 C20,-10 25,-15 25,-20" stroke="white" stroke-width="6" fill="none"/>
    <circle cx="-10" cy="-20" r="4" fill="#FFD43B"/>
    <circle cx="10" cy="20" r="4" fill="white"/>
  </g>
</svg>
