<svg xmlns="http://www.w3.org/2000/svg" viewBox="0 0 400 300" fill="none">
  <defs>
    <linearGradient id="bg5" x1="0%" y1="0%" x2="100%" y2="100%">
      <stop offset="0%" style="stop-color:#18181b"/>
      <stop offset="100%" style="stop-color:#27272a"/>
    </linearGradient>
  </defs>
  <rect width="400" height="300" fill="url(#bg5)"/>
  <text x="200" y="30" text-anchor="middle" fill="white" font-size="14" font-weight="bold">CI/CD Pipeline Optimization</text>
  <rect x="30" y="50" width="150" height="100" rx="10" fill="#7f1d1d" stroke="#ef4444" stroke-width="2"/>
  <text x="105" y="75" text-anchor="middle" fill="#fca5a5" font-size="11" font-weight="bold">Before</text>
  <text x="105" y="95" text-anchor="middle" fill="white" font-size="10">36 Stacks</text>
  <text x="105" y="115" text-anchor="middle" fill="#f87171" font-size="10">~950 KB</text>
  <text x="105" y="135" text-anchor="middle" fill="#f87171" font-size="10">~3 hours</text>
  <path d="M180 100 L220 100" stroke="#f59e0b" stroke-width="3"/>
  <polygon points="220,95 230,100 220,105" fill="#f59e0b"/>
  <rect x="230" y="50" width="150" height="100" rx="10" fill="#14532d" stroke="#22c55e" stroke-width="2"/>
  <text x="305" y="75" text-anchor="middle" fill="#86efac" font-size="11" font-weight="bold">After</text>
  <text x="305" y="95" text-anchor="middle" fill="white" font-size="10">Nested Stacks</text>
  <text x="305" y="115" text-anchor="middle" fill="#22c55e" font-size="10">~300 KB</text>
  <text x="305" y="135" text-anchor="middle" fill="#22c55e" font-size="10">~1.5 hours</text>
  <rect x="50" y="170" width="300" height="110" rx="10" fill="#1e293b"/>
  <text x="200" y="195" text-anchor="middle" fill="#f59e0b" font-size="11" font-weight="bold">Improvements</text>
  <rect x="70" y="210" width="120" height="25" rx="5" fill="#065f46"/>
  <text x="130" y="227" text-anchor="middle" fill="white" font-size="10">68% smaller</text>
  <rect x="210" y="210" width="120" height="25" rx="5" fill="#1e3a5f"/>
  <text x="270" y="227" text-anchor="middle" fill="white" font-size="10">50% faster</text>
  <rect x="140" y="245" width="120" height="25" rx="5" fill="#4c1d95"/>
  <text x="200" y="262" text-anchor="middle" fill="white" font-size="10">S3 Artifacts</text>
</svg>
