<svg xmlns="http://www.w3.org/2000/svg" viewBox="0 0 400 300" fill="none">
  <defs>
    <linearGradient id="bg12" x1="0%" y1="0%" x2="100%" y2="100%">
      <stop offset="0%" style="stop-color:#0f172a"/>
      <stop offset="100%" style="stop-color:#1e293b"/>
    </linearGradient>
  </defs>
  <rect width="400" height="300" fill="url(#bg12)"/>
  <text x="200" y="30" text-anchor="middle" fill="white" font-size="14" font-weight="bold">Chat with CI/CD Pipelines</text>
  <rect x="30" y="50" width="180" height="220" rx="15" fill="#1e3a5f" stroke="#3b82f6" stroke-width="2"/>
  <rect x="45" y="70" width="150" height="30" rx="8" fill="#0f172a"/>
  <text x="120" y="90" text-anchor="middle" fill="#60a5fa" font-size="10">Why did build #42 fail?</text>
  <rect x="55" y="115" width="140" height="60" rx="8" fill="#065f46"/>
  <text x="125" y="135" text-anchor="middle" fill="white" font-size="9">Build failed due to:</text>
  <text x="125" y="150" text-anchor="middle" fill="#86efac" font-size="8">- Test timeout in api.spec</text>
  <text x="125" y="165" text-anchor="middle" fill="#86efac" font-size="8">- Memory limit exceeded</text>
  <rect x="45" y="190" width="150" height="25" rx="5" fill="#0f172a"/>
  <text x="120" y="207" text-anchor="middle" fill="#60a5fa" font-size="9">Show deploy status</text>
  <rect x="55" y="225" width="140" height="35" rx="8" fill="#1e3a5f"/>
  <text x="125" y="247" text-anchor="middle" fill="#f59e0b" font-size="9">Production: Healthy</text>
  <rect x="230" y="50" width="150" height="100" rx="10" fill="#232F3E" stroke="#FF9900" stroke-width="2"/>
  <text x="305" y="75" text-anchor="middle" fill="#FF9900" font-size="11" font-weight="bold">AWS Bedrock</text>
  <circle cx="275" cy="110" r="20" fill="#00D9FF" opacity="0.8"/>
  <circle cx="335" cy="110" r="20" fill="#FF9900" opacity="0.8"/>
  <text x="305" y="145" text-anchor="middle" fill="#94a3b8" font-size="9">GenAI Analysis</text>
  <rect x="230" y="170" width="150" height="100" rx="10" fill="#1e293b"/>
  <text x="305" y="195" text-anchor="middle" fill="#10b981" font-size="10" font-weight="bold">Features</text>
  <text x="305" y="215" text-anchor="middle" fill="white" font-size="9">Dynamic Insights</text>
  <text x="305" y="235" text-anchor="middle" fill="white" font-size="9">Pipeline Recommendations</text>
  <text x="305" y="255" text-anchor="middle" fill="white" font-size="9">Real-time Monitoring</text>
</svg>
