<svg xmlns="http://www.w3.org/2000/svg" viewBox="0 0 400 300" fill="none">
  <defs>
    <linearGradient id="bg4" x1="0%" y1="0%" x2="100%" y2="100%">
      <stop offset="0%" style="stop-color:#0c1929"/>
      <stop offset="100%" style="stop-color:#1a365d"/>
    </linearGradient>
  </defs>
  <rect width="400" height="300" fill="url(#bg4)"/>
  <rect x="30" y="30" width="100" height="80" rx="8" fill="#1e3a5f" stroke="#3b82f6" stroke-width="2"/>
  <text x="80" y="55" text-anchor="middle" fill="white" font-size="10" font-weight="bold">On-Prem</text>
  <rect x="45" y="65" width="70" height="8" rx="2" fill="#64748b"/>
  <rect x="45" y="78" width="70" height="8" rx="2" fill="#64748b"/>
  <rect x="45" y="91" width="70" height="8" rx="2" fill="#64748b"/>
  <text x="80" y="120" text-anchor="middle" fill="#94a3b8" font-size="9">7M+ Files</text>
  <path d="M130 70 L170 70" stroke="#10b981" stroke-width="3" stroke-dasharray="5,5"/>
  <path d="M170 55 L170 85 L200 70 Z" fill="#10b981"/>
  <rect x="200" y="20" width="170" height="100" rx="10" fill="#232F3E" stroke="#FF9900" stroke-width="2"/>
  <text x="285" y="45" text-anchor="middle" fill="#FF9900" font-size="12" font-weight="bold">AWS Cloud</text>
  <rect x="215" y="55" width="60" height="25" rx="5" fill="#3b82f6"/>
  <text x="245" y="72" text-anchor="middle" fill="white" font-size="9">S3</text>
  <rect x="285" y="55" width="70" height="25" rx="5" fill="#00D9FF"/>
  <text x="320" y="72" text-anchor="middle" fill="white" font-size="9">Kendra</text>
  <rect x="215" y="90" width="140" height="25" rx="5" fill="#FF9900" opacity="0.8"/>
  <text x="285" y="107" text-anchor="middle" fill="white" font-size="9">Bedrock AI Search</text>
  <rect x="30" y="150" width="340" height="120" rx="10" fill="#1e293b" stroke="#f59e0b" stroke-width="2"/>
  <text x="200" y="175" text-anchor="middle" fill="#f59e0b" font-size="12" font-weight="bold">Export Compliance Platform</text>
  <rect x="50" y="195" width="90" height="50" rx="8" fill="#065f46"/>
  <text x="95" y="215" text-anchor="middle" fill="white" font-size="9">Admin</text>
  <text x="95" y="235" text-anchor="middle" fill="#10b981" font-size="8">Full Access</text>
  <rect x="155" y="195" width="90" height="50" rx="8" fill="#1e3a5f"/>
  <text x="200" y="215" text-anchor="middle" fill="white" font-size="9">Reviewer</text>
  <text x="200" y="235" text-anchor="middle" fill="#3b82f6" font-size="8">Audit Trail</text>
  <rect x="260" y="195" width="90" height="50" rx="8" fill="#4c1d95"/>
  <text x="305" y="215" text-anchor="middle" fill="white" font-size="9">End User</text>
  <text x="305" y="235" text-anchor="middle" fill="#a78bfa" font-size="8">Smart Search</text>
</svg>
