<svg xmlns="http://www.w3.org/2000/svg" viewBox="0 0 400 300" fill="none">
  <defs>
    <linearGradient id="bg6" x1="0%" y1="0%" x2="100%" y2="100%">
      <stop offset="0%" style="stop-color:#0f172a"/>
      <stop offset="100%" style="stop-color:#1e293b"/>
    </linearGradient>
  </defs>
  <rect width="400" height="300" fill="url(#bg6)"/>
  <text x="200" y="30" text-anchor="middle" fill="white" font-size="14" font-weight="bold">OCI OKE to AWS EKS Migration</text>
  <rect x="30" y="50" width="120" height="90" rx="10" fill="#7c2d12" stroke="#f97316" stroke-width="2"/>
  <text x="90" y="75" text-anchor="middle" fill="#fed7aa" font-size="11" font-weight="bold">OCI OKE</text>
  <text x="90" y="95" text-anchor="middle" fill="white" font-size="9">GitLab CI</text>
  <text x="90" y="115" text-anchor="middle" fill="#fb923c" font-size="9">300+ Servers</text>
  <text x="90" y="130" text-anchor="middle" fill="#fdba74" font-size="9">4 Environments</text>
  <path d="M150 95 L190 95" stroke="#10b981" stroke-width="3"/>
  <polygon points="190,90 200,95 190,100" fill="#10b981"/>
  <rect x="200" y="50" width="170" height="90" rx="10" fill="#232F3E" stroke="#FF9900" stroke-width="2"/>
  <text x="285" y="75" text-anchor="middle" fill="#FF9900" font-size="11" font-weight="bold">AWS EKS</text>
  <rect x="215" y="85" width="50" height="20" rx="4" fill="#326CE5"/>
  <text x="240" y="99" text-anchor="middle" fill="white" font-size="8">Karpenter</text>
  <rect x="270" y="85" width="45" height="20" rx="4" fill="#FF9900"/>
  <text x="292" y="99" text-anchor="middle" fill="white" font-size="8">Fargate</text>
  <rect x="320" y="85" width="45" height="20" rx="4" fill="#10b981"/>
  <text x="342" y="99" text-anchor="middle" fill="white" font-size="8">Graviton</text>
  <text x="285" y="130" text-anchor="middle" fill="#94a3b8" font-size="9">Dynamic Scaling</text>
  <rect x="50" y="160" width="300" height="120" rx="10" fill="#1e293b"/>
  <text x="200" y="185" text-anchor="middle" fill="#22c55e" font-size="12" font-weight="bold">Results</text>
  <rect x="70" y="200" width="100" height="35" rx="6" fill="#065f46"/>
  <text x="120" y="222" text-anchor="middle" fill="white" font-size="11" font-weight="bold">60%</text>
  <text x="120" y="232" text-anchor="middle" fill="#86efac" font-size="8">Cost Reduction</text>
  <rect x="190" y="200" width="70" height="35" rx="6" fill="#1e3a5f"/>
  <text x="225" y="222" text-anchor="middle" fill="white" font-size="11" font-weight="bold">CDK</text>
  <text x="225" y="232" text-anchor="middle" fill="#93c5fd" font-size="8">Drift Detection</text>
  <rect x="280" y="200" width="70" height="35" rx="6" fill="#4c1d95"/>
  <text x="315" y="222" text-anchor="middle" fill="white" font-size="11" font-weight="bold">GDPR</text>
  <text x="315" y="232" text-anchor="middle" fill="#c4b5fd" font-size="8">Compliant</text>
</svg>
