<svg xmlns="http://www.w3.org/2000/svg" viewBox="0 0 400 300" fill="none">
  <defs>
    <linearGradient id="bg2" x1="0%" y1="0%" x2="100%" y2="100%">
      <stop offset="0%" style="stop-color:#0f172a"/>
      <stop offset="100%" style="stop-color:#1e293b"/>
    </linearGradient>
  </defs>
  <rect width="400" height="300" fill="url(#bg2)"/>
  <rect x="30" y="30" width="200" height="240" rx="15" fill="#1e3a5f" stroke="#3b82f6" stroke-width="2"/>
  <rect x="45" y="50" width="170" height="30" rx="8" fill="#0f172a"/>
  <text x="130" y="70" text-anchor="middle" fill="#60a5fa" font-family="Arial" font-size="11">Ask about financial data...</text>
  <rect x="45" y="95" width="120" height="25" rx="5" fill="#3b82f6" opacity="0.3"/>
  <text x="105" y="112" text-anchor="middle" fill="white" font-size="10">Show Q3 revenue</text>
  <rect x="75" y="130" width="140" height="50" rx="8" fill="#065f46"/>
  <text x="145" y="150" text-anchor="middle" fill="white" font-size="9">SQL Generated</text>
  <text x="145" y="170" text-anchor="middle" fill="#10b981" font-size="8">SELECT SUM(revenue)...</text>
  <rect x="250" y="30" width="130" height="100" rx="10" fill="#1e3a5f" stroke="#f59e0b" stroke-width="2"/>
  <rect x="265" y="50" width="100" height="60" fill="#0f172a" rx="5"/>
  <rect x="275" y="65" width="15" height="35" fill="#3b82f6"/>
  <rect x="295" y="55" width="15" height="45" fill="#10b981"/>
  <rect x="315" y="70" width="15" height="30" fill="#f59e0b"/>
  <rect x="335" y="60" width="15" height="40" fill="#8b5cf6"/>
  <text x="315" y="145" text-anchor="middle" fill="white" font-size="10">Visualizations</text>
  <rect x="250" y="160" width="130" height="110" rx="10" fill="#232F3E"/>
  <text x="315" y="185" text-anchor="middle" fill="#FF9900" font-size="12" font-weight="bold">AWS Bedrock</text>
  <circle cx="280" cy="220" r="15" fill="#00D9FF" opacity="0.8"/>
  <circle cx="315" cy="220" r="15" fill="#FF9900" opacity="0.8"/>
  <circle cx="350" cy="220" r="15" fill="#10b981" opacity="0.8"/>
  <text x="315" y="255" text-anchor="middle" fill="#94a3b8" font-size="9">LangGraph + AgentCore</text>
</svg>
