<svg xmlns="http://www.w3.org/2000/svg" viewBox="0 0 400 300" fill="none">
  <defs>
    <linearGradient id="bg11" x1="0%" y1="0%" x2="100%" y2="100%">
      <stop offset="0%" style="stop-color:#0f172a"/>
      <stop offset="100%" style="stop-color:#1e3a5f"/>
    </linearGradient>
  </defs>
  <rect width="400" height="300" fill="url(#bg11)"/>
  <text x="200" y="30" text-anchor="middle" fill="white" font-size="14" font-weight="bold">Kubernetes Microservices Platform</text>
  <rect x="130" y="45" width="140" height="60" rx="10" fill="#326CE5" stroke="#60a5fa" stroke-width="2"/>
  <text x="200" y="80" text-anchor="middle" fill="white" font-size="12" font-weight="bold">Kubernetes + Helm</text>
  <g transform="translate(50,130)">
    <rect width="70" height="50" rx="6" fill="#1e293b" stroke="#3b82f6"/>
    <text x="35" y="25" text-anchor="middle" fill="white" font-size="9">Service 1</text>
    <text x="35" y="40" text-anchor="middle" fill="#60a5fa" font-size="8">v2.1.0</text>
  </g>
  <g transform="translate(130,130)">
    <rect width="70" height="50" rx="6" fill="#1e293b" stroke="#10b981"/>
    <text x="35" y="25" text-anchor="middle" fill="white" font-size="9">Service 2</text>
    <text x="35" y="40" text-anchor="middle" fill="#10b981" font-size="8">v1.5.2</text>
  </g>
  <g transform="translate(210,130)">
    <rect width="70" height="50" rx="6" fill="#1e293b" stroke="#f59e0b"/>
    <text x="35" y="25" text-anchor="middle" fill="white" font-size="9">Service 3</text>
    <text x="35" y="40" text-anchor="middle" fill="#f59e0b" font-size="8">v3.0.1</text>
  </g>
  <g transform="translate(290,130)">
    <rect width="70" height="50" rx="6" fill="#1e293b" stroke="#a78bfa"/>
    <text x="35" y="25" text-anchor="middle" fill="white" font-size="9">Service N</text>
    <text x="35" y="40" text-anchor="middle" fill="#a78bfa" font-size="8">v1.0.0</text>
  </g>
  <path d="M200 105 L85 130" stroke="#94a3b8" stroke-width="1"/>
  <path d="M200 105 L165 130" stroke="#94a3b8" stroke-width="1"/>
  <path d="M200 105 L245 130" stroke="#94a3b8" stroke-width="1"/>
  <path d="M200 105 L325 130" stroke="#94a3b8" stroke-width="1"/>
  <rect x="50" y="205" width="140" height="70" rx="8" fill="#065f46"/>
  <text x="120" y="230" text-anchor="middle" fill="white" font-size="10" font-weight="bold">Zero-Downtime</text>
  <text x="120" y="250" text-anchor="middle" fill="#86efac" font-size="9">Rolling Updates</text>
  <text x="120" y="265" text-anchor="middle" fill="#22c55e" font-size="9">Versioned Rollbacks</text>
  <rect x="210" y="205" width="140" height="70" rx="8" fill="#4c1d95"/>
  <text x="280" y="230" text-anchor="middle" fill="white" font-size="10" font-weight="bold">SonarQube SAST</text>
  <text x="280" y="250" text-anchor="middle" fill="#c4b5fd" font-size="9">100% Code Scanning</text>
  <text x="280" y="265" text-anchor="middle" fill="#a78bfa" font-size="9">CI/CD Integration</text>
</svg>
