<svg xmlns="http://www.w3.org/2000/svg" viewBox="0 0 400 300" fill="none">
  <defs>
    <linearGradient id="bg9" x1="0%" y1="0%" x2="100%" y2="100%">
      <stop offset="0%" style="stop-color:#1a1a2e"/>
      <stop offset="100%" style="stop-color:#16213e"/>
    </linearGradient>
  </defs>
  <rect width="400" height="300" fill="url(#bg9)"/>
  <text x="200" y="30" text-anchor="middle" fill="white" font-size="14" font-weight="bold">GenAI Model & RAG Evaluator</text>
  <rect x="30" y="50" width="110" height="80" rx="10" fill="#1e3a5f" stroke="#3b82f6" stroke-width="2"/>
  <text x="85" y="75" text-anchor="middle" fill="white" font-size="11" font-weight="bold">Documents</text>
  <rect x="45" y="85" width="80" height="10" rx="2" fill="#3b82f6" opacity="0.5"/>
  <rect x="45" y="100" width="80" height="10" rx="2" fill="#3b82f6" opacity="0.5"/>
  <rect x="45" y="115" width="60" height="10" rx="2" fill="#3b82f6" opacity="0.5"/>
  <path d="M140 90 L175 90" stroke="#f59e0b" stroke-width="2"/>
  <rect x="175" y="50" width="100" height="80" rx="10" fill="#4c1d95" stroke="#8b5cf6" stroke-width="2"/>
  <text x="225" y="75" text-anchor="middle" fill="white" font-size="10" font-weight="bold">Vector DB</text>
  <circle cx="205" cy="100" r="12" fill="#a78bfa" opacity="0.6"/>
  <circle cx="225" cy="105" r="12" fill="#a78bfa" opacity="0.6"/>
  <circle cx="245" cy="100" r="12" fill="#a78bfa" opacity="0.6"/>
  <text x="225" y="125" text-anchor="middle" fill="#c4b5fd" font-size="8">Embeddings</text>
  <path d="M275 90 L310 90" stroke="#f59e0b" stroke-width="2"/>
  <rect x="310" y="45" width="70" height="90" rx="10" fill="#232F3E" stroke="#FF9900" stroke-width="2"/>
  <text x="345" y="70" text-anchor="middle" fill="#FF9900" font-size="10" font-weight="bold">Bedrock</text>
  <circle cx="345" cy="95" r="20" fill="#00D9FF" opacity="0.8"/>
  <text x="345" y="100" text-anchor="middle" fill="white" font-size="9">LLM</text>
  <text x="345" y="130" text-anchor="middle" fill="#94a3b8" font-size="8">Claude/Titan</text>
  <rect x="50" y="155" width="300" height="125" rx="10" fill="#1e293b"/>
  <text x="200" y="180" text-anchor="middle" fill="#10b981" font-size="12" font-weight="bold">Evaluation Metrics</text>
  <rect x="70" y="195" width="75" height="40" rx="6" fill="#065f46"/>
  <text x="107" y="215" text-anchor="middle" fill="white" font-size="10">Accuracy</text>
  <text x="107" y="230" text-anchor="middle" fill="#22c55e" font-size="11">92%</text>
  <rect x="160" y="195" width="80" height="40" rx="6" fill="#1e3a5f"/>
  <text x="200" y="215" text-anchor="middle" fill="white" font-size="10">Relevance</text>
  <text x="200" y="230" text-anchor="middle" fill="#60a5fa" font-size="11">0.89</text>
  <rect x="255" y="195" width="75" height="40" rx="6" fill="#4c1d95"/>
  <text x="292" y="215" text-anchor="middle" fill="white" font-size="10">Latency</text>
  <text x="292" y="230" text-anchor="middle" fill="#a78bfa" font-size="11">1.2s</text>
  <text x="200" y="265" text-anchor="middle" fill="#f59e0b" font-size="10">50% Faster Evaluation Process</text>
</svg>
