<svg xmlns="http://www.w3.org/2000/svg" viewBox="0 0 400 300" fill="none">
  <defs>
    <linearGradient id="bg10" x1="0%" y1="0%" x2="100%" y2="100%">
      <stop offset="0%" style="stop-color:#1a1a2e"/>
      <stop offset="100%" style="stop-color:#2d1f4e"/>
    </linearGradient>
  </defs>
  <rect width="400" height="300" fill="url(#bg10)"/>
  <text x="200" y="30" text-anchor="middle" fill="white" font-size="14" font-weight="bold">Modular AWS Infrastructure</text>
  <rect x="150" y="45" width="100" height="50" rx="10" fill="#7B42BC" stroke="#a78bfa" stroke-width="2"/>
  <text x="200" y="75" text-anchor="middle" fill="white" font-size="12" font-weight="bold">Terraform</text>
  <path d="M150 95 L80 130" stroke="#a78bfa" stroke-width="2"/>
  <path d="M200 95 L200 130" stroke="#a78bfa" stroke-width="2"/>
  <path d="M250 95 L320 130" stroke="#a78bfa" stroke-width="2"/>
  <rect x="30" y="130" width="100" height="50" rx="8" fill="#1e3a5f"/>
  <text x="80" y="160" text-anchor="middle" fill="white" font-size="10" font-weight="bold">VPCs</text>
  <rect x="150" y="130" width="100" height="50" rx="8" fill="#065f46"/>
  <text x="200" y="160" text-anchor="middle" fill="white" font-size="10" font-weight="bold">Subnets</text>
  <rect x="270" y="130" width="100" height="50" rx="8" fill="#7c2d12"/>
  <text x="320" y="160" text-anchor="middle" fill="white" font-size="10" font-weight="bold">EC2</text>
  <rect x="30" y="200" width="100" height="50" rx="8" fill="#4c1d95"/>
  <text x="80" y="230" text-anchor="middle" fill="white" font-size="10" font-weight="bold">IAM Roles</text>
  <rect x="150" y="200" width="100" height="50" rx="8" fill="#0e7490"/>
  <text x="200" y="230" text-anchor="middle" fill="white" font-size="10" font-weight="bold">Security</text>
  <rect x="270" y="200" width="100" height="50" rx="8" fill="#232F3E"/>
  <text x="320" y="230" text-anchor="middle" fill="#FF9900" font-size="10" font-weight="bold">ML Envs</text>
  <rect x="100" y="265" width="200" height="25" rx="5" fill="#22c55e" opacity="0.2"/>
  <text x="200" y="282" text-anchor="middle" fill="#22c55e" font-size="10">10+ VPC Components | 70% Faster Provisioning</text>
</svg>
