<?xml version="1.0" encoding="UTF-8"?>
<svg xmlns="http://www.w3.org/2000/svg" xmlns:xlink="http://www.w3.org/1999/xlink" width="165px" height="21px" viewBox="0 0 166 21" version="1.1">
<g id="surface1">
<path style=" stroke:none;fill-rule:evenodd;fill:rgb(21.960784%,74.117649%,97.254902%);fill-opacity:1;" d="M 17.105469 0 C 12.546875 0 9.695312 2.289062 8.554688 6.871094 C 10.265625 4.582031 12.261719 3.722656 14.539062 4.296875 C 15.84375 4.621094 16.773438 5.570312 17.800781 6.621094 C 19.480469 8.328125 21.421875 10.308594 25.660156 10.308594 C 30.222656 10.308594 33.074219 8.019531 34.214844 3.4375 C 32.503906 5.726562 30.507812 6.585938 28.226562 6.011719 C 26.925781 5.6875 25.996094 4.738281 24.964844 3.6875 C 23.289062 1.980469 21.347656 0 17.105469 0 Z M 8.554688 10.308594 C 3.992188 10.308594 1.140625 12.601562 0 17.183594 C 1.710938 14.890625 3.707031 14.03125 5.988281 14.605469 C 7.289062 14.929688 8.21875 15.878906 9.25 16.929688 C 10.925781 18.640625 12.867188 20.617188 17.105469 20.617188 C 21.667969 20.617188 24.519531 18.328125 25.660156 13.746094 C 23.949219 16.035156 21.953125 16.894531 19.671875 16.324219 C 18.371094 15.996094 17.441406 15.046875 16.410156 14 C 14.734375 12.289062 12.792969 10.308594 8.554688 10.308594 Z M 8.554688 10.308594 "/>
<path style=" stroke:none;fill-rule:evenodd;fill:rgb(100%,100%,100%);fill-opacity:1;" d="M 51.316406 8.6875 L 48.332031 8.6875 L 48.332031 14.492188 C 48.332031 16.039062 49.34375 16.015625 51.316406 15.917969 L 51.316406 18.261719 C 47.320312 18.746094 45.730469 17.636719 45.730469 14.492188 L 45.730469 8.6875 L 43.515625 8.6875 L 43.515625 6.171875 L 45.730469 6.171875 L 45.730469 2.925781 L 48.332031 2.152344 L 48.332031 6.171875 L 51.316406 6.171875 Z M 62.699219 6.171875 L 65.296875 6.171875 L 65.296875 18.261719 L 62.699219 18.261719 L 62.699219 16.523438 C 61.785156 17.804688 60.363281 18.578125 58.484375 18.578125 C 55.210938 18.578125 52.488281 15.796875 52.488281 12.21875 C 52.488281 8.613281 55.210938 5.859375 58.484375 5.859375 C 60.363281 5.859375 61.785156 6.632812 62.699219 7.890625 Z M 58.894531 16.085938 C 61.0625 16.085938 62.699219 14.46875 62.699219 12.21875 C 62.699219 9.96875 61.0625 8.347656 58.894531 8.347656 C 56.726562 8.347656 55.089844 9.96875 55.089844 12.21875 C 55.089844 14.46875 56.726562 16.085938 58.894531 16.085938 Z M 69.632812 4.359375 C 68.71875 4.359375 67.972656 3.585938 67.972656 2.691406 C 67.972656 2.25 68.148438 1.824219 68.457031 1.511719 C 68.769531 1.199219 69.191406 1.023438 69.632812 1.023438 C 70.074219 1.023438 70.496094 1.199219 70.804688 1.511719 C 71.117188 1.824219 71.292969 2.25 71.292969 2.691406 C 71.292969 3.585938 70.546875 4.359375 69.632812 4.359375 Z M 68.332031 18.261719 L 68.332031 6.171875 L 70.933594 6.171875 L 70.933594 18.261719 Z M 73.941406 18.261719 L 73.941406 0.609375 L 76.542969 0.609375 L 76.542969 18.261719 Z M 93.421875 6.171875 L 96.164062 6.171875 L 92.382812 18.261719 L 89.832031 18.261719 L 87.328125 10.113281 L 84.800781 18.261719 L 82.25 18.261719 L 78.46875 6.171875 L 81.214844 6.171875 L 83.546875 14.515625 L 86.078125 6.171875 L 88.554688 6.171875 L 91.058594 14.515625 Z M 99.390625 4.359375 C 98.476562 4.359375 97.730469 3.585938 97.730469 2.691406 C 97.730469 2.25 97.90625 1.824219 98.21875 1.511719 C 98.527344 1.199219 98.949219 1.023438 99.390625 1.023438 C 99.832031 1.023438 100.253906 1.199219 100.566406 1.511719 C 100.875 1.824219 101.050781 2.25 101.050781 2.691406 C 101.050781 3.585938 100.304688 4.359375 99.390625 4.359375 Z M 98.089844 18.261719 L 98.089844 6.171875 L 100.691406 6.171875 L 100.691406 18.261719 Z M 110.03125 5.859375 C 112.730469 5.859375 114.65625 7.695312 114.65625 10.839844 L 114.65625 18.261719 L 112.054688 18.261719 L 112.054688 11.105469 C 112.054688 9.269531 110.996094 8.300781 109.359375 8.300781 C 107.648438 8.300781 106.300781 9.316406 106.300781 11.78125 L 106.300781 18.261719 L 103.699219 18.261719 L 103.699219 6.171875 L 106.300781 6.171875 L 106.300781 7.71875 C 107.09375 6.464844 108.394531 5.859375 110.03125 5.859375 Z M 126.980469 1.335938 L 129.582031 1.335938 L 129.582031 18.261719 L 126.980469 18.261719 L 126.980469 16.523438 C 126.066406 17.804688 124.648438 18.578125 122.769531 18.578125 C 119.496094 18.578125 116.773438 15.796875 116.773438 12.21875 C 116.773438 8.613281 119.496094 5.859375 122.769531 5.859375 C 124.648438 5.859375 126.066406 6.632812 126.980469 7.890625 Z M 123.179688 16.085938 C 125.34375 16.085938 126.980469 14.46875 126.980469 12.21875 C 126.980469 9.96875 125.34375 8.347656 123.179688 8.347656 C 121.011719 8.347656 119.375 9.96875 119.375 12.21875 C 119.375 14.46875 121.011719 16.085938 123.179688 16.085938 Z M 138.296875 18.578125 C 134.664062 18.578125 131.941406 15.796875 131.941406 12.21875 C 131.941406 8.613281 134.664062 5.859375 138.296875 5.859375 C 140.65625 5.859375 142.703125 7.089844 143.667969 8.976562 L 141.429688 10.285156 C 140.898438 9.148438 139.71875 8.421875 138.273438 8.421875 C 136.15625 8.421875 134.542969 10.042969 134.542969 12.21875 C 134.542969 14.394531 136.15625 16.015625 138.273438 16.015625 C 139.71875 16.015625 140.898438 15.265625 141.476562 14.152344 L 143.714844 15.433594 C 142.703125 17.34375 140.65625 18.578125 138.296875 18.578125 Z M 148 9.511719 C 148 11.710938 154.476562 10.378906 154.476562 14.855469 C 154.476562 17.273438 152.382812 18.578125 149.78125 18.578125 C 147.375 18.578125 145.640625 17.488281 144.871094 15.75 L 147.109375 14.441406 C 147.496094 15.53125 148.457031 16.183594 149.78125 16.183594 C 150.9375 16.183594 151.828125 15.796875 151.828125 14.828125 C 151.828125 12.675781 145.351562 13.886719 145.351562 9.558594 C 145.351562 7.285156 147.304688 5.859375 149.757812 5.859375 C 151.734375 5.859375 153.371094 6.777344 154.210938 8.375 L 152.023438 9.605469 C 151.589844 8.664062 150.746094 8.226562 149.757812 8.226562 C 148.820312 8.226562 148 8.640625 148 9.511719 Z M 159.101562 9.511719 C 159.101562 11.710938 165.578125 10.378906 165.578125 14.855469 C 165.578125 17.273438 163.480469 18.578125 160.882812 18.578125 C 158.472656 18.578125 156.742188 17.488281 155.96875 15.75 L 158.210938 14.441406 C 158.59375 15.53125 159.558594 16.183594 160.882812 16.183594 C 162.039062 16.183594 162.929688 15.796875 162.929688 14.828125 C 162.929688 12.675781 156.453125 13.886719 156.453125 9.558594 C 156.453125 7.285156 158.402344 5.859375 160.859375 5.859375 C 162.832031 5.859375 164.46875 6.777344 165.3125 8.375 L 163.121094 9.605469 C 162.6875 8.664062 161.84375 8.226562 160.859375 8.226562 C 159.917969 8.226562 159.101562 8.640625 159.101562 9.511719 Z M 159.101562 9.511719 "/>
</g>
</svg>
